<svg xmlns="http://www.w3.org/2000/svg" viewBox="0 0 54 54"><defs><style>.cls-1{fill:#fff;}.cls-2{fill:#7ac384;}.cls-3{fill:#cfd05d;}.cls-4{fill:#e2d162;}.cls-5{fill:#39bebd;}.cls-6{fill:#a3cd59;}.cls-7{fill:#407dbe;}.cls-8{fill:#7cc15e;}.cls-9{fill:#69c298;}.cls-10{fill:#3097d4;}</style></defs><title>geotrellis_RGB_darkbg</title><g id="Layer_2" data-name="Layer 2"><g id="Layer_1-2" data-name="Layer 1"><path class="cls-1" d="M97.77,10q-8.25,0-12.64,6.34-3.8,5.45-3.79,14.15c0,5.81,1.26,10.5,3.79,14.1q4.4,6.33,12.64,6.33,7.23,0,11.32-4.37,4-4.2,4-11.53V33.14H99V31.36h15.9a11.28,11.28,0,0,1,.06,1.13v1.07q0,13.57-9.3,17.55a20.52,20.52,0,0,1-7.93,1.54q-9.24,0-14.1-6.64-4.38-6-4.38-15.54t4.33-15.54q4.86-6.75,14.18-6.76a19.27,19.27,0,0,1,9.9,2.43,13.37,13.37,0,0,1,6.11,7.89l-1.84.89Q109.09,9.95,97.77,10Z"/><path class="cls-1" d="M132.28,52.53c-4.38,0-7.73-1.62-10-4.86q-3-4.32-3-11.21t3-11.15a11.42,11.42,0,0,1,10-5q6.47,0,9.85,4.45,3.08,4,3.08,10.67v1.13h-24v.47a16.08,16.08,0,0,0,2.67,9.49,9.67,9.67,0,0,0,8.42,4.39q7.49,0,10.14-7l1.55.83a11.67,11.67,0,0,1-3.74,5.16A12.46,12.46,0,0,1,132.28,52.53Zm11-17.73A14.42,14.42,0,0,0,140.71,26a9.34,9.34,0,0,0-8-3.92,10.09,10.09,0,0,0-8.36,3.8,15.88,15.88,0,0,0-3,8.89Z"/><path class="cls-1" d="M152.09,25.19q3.56-4.86,10.32-4.86t10.38,4.86Q176,29.46,176,36.46t-3.2,11.33q-3.67,4.74-10.38,4.74t-10.32-4.74q-3.19-4.34-3.2-11.33T152.09,25.19Zm1.37,21.31a10.2,10.2,0,0,0,8.95,4.43,10.37,10.37,0,0,0,9-4.43q2.65-3.78,2.66-10a17.2,17.2,0,0,0-2.66-10,10.4,10.4,0,0,0-9-4.43q-5.92,0-8.95,4.43a17.13,17.13,0,0,0-2.67,10Q150.79,42.73,153.46,46.5Z"/><path class="cls-1" d="M186.9,10.9H173.62V9.12h28.64V10.9H189V51.76H186.9Z"/><path class="cls-1" d="M200.66,21h1.9v5.1q2.37-5,10.2-5l-1.18,1.66a9.74,9.74,0,0,0-3.15.36,9.33,9.33,0,0,0-4.15,3,7.68,7.68,0,0,0-1.72,5.16V51.76h-1.9Z"/><path class="cls-1" d="M227.71,52.53q-6.59,0-10-4.86-3-4.32-3-11.21t3-11.15a11.43,11.43,0,0,1,10-5q6.47,0,9.84,4.45,3.09,4,3.08,10.67v1.13h-24v.47a16.08,16.08,0,0,0,2.67,9.49,9.64,9.64,0,0,0,8.42,4.39q7.47,0,10.14-7l1.54.83a11.67,11.67,0,0,1-3.74,5.16A12.45,12.45,0,0,1,227.71,52.53Zm11-17.73A14.36,14.36,0,0,0,236.13,26a9.34,9.34,0,0,0-8-3.92,10.1,10.1,0,0,0-8.36,3.8,15.88,15.88,0,0,0-3,8.89Z"/><path class="cls-1" d="M247.46,9.12h1.89V51.76h-1.89Z"/><path class="cls-1" d="M257.24,9.12h1.9V51.76h-1.9Z"/><path class="cls-1" d="M267.92,8.65c.86,0,1.3.93,1.3,2.78s-.44,2.85-1.3,2.85-1.25-.95-1.25-2.85S267.08,8.65,267.92,8.65ZM267,21h1.89V51.76H267Z"/><path class="cls-1" d="M287.19,50.75a11.07,11.07,0,0,0,6.17-1.59,6,6,0,0,0,2.9-5.39q0-4.26-6.11-5.92l-.56-.18a9.59,9.59,0,0,0-1-.23q-7.53-2-9.72-3.67a6.42,6.42,0,0,1-2.49-5.33,7,7,0,0,1,3.38-6.22,12.94,12.94,0,0,1,7.11-1.89,10.52,10.52,0,0,1,7.06,2.37,9.59,9.59,0,0,1,3.32,6.59h-1.84q-.94-7.18-8.77-7.18A10.42,10.42,0,0,0,281,23.53a5.33,5.33,0,0,0-2.79,4.78q0,4.62,9.43,7a1.16,1.16,0,0,0,.6.18A23.09,23.09,0,0,1,295,38a6.67,6.67,0,0,1,3.14,5.91,7.63,7.63,0,0,1-3.44,6.56,13.37,13.37,0,0,1-7.47,2.06A12.62,12.62,0,0,1,279.18,50a10.18,10.18,0,0,1-3.67-7.47h1.83Q278.83,50.76,287.19,50.75Z"/><rect class="cls-2" x="19" y="19" width="7" height="7"/><rect class="cls-3" x="19" y="10" width="7" height="7"/><polygon class="cls-4" points="28 0 28 6.91 28 17 37 17 37 17 45 17 45 0 28 0"/><polygon class="cls-5" points="55 44 55 19 47.39 19 37 19 37 44 55 44"/><polygon class="cls-6" points="17 25.49 17 18.88 17 16.31 17 10 0 10 0 35 7 35 7 35 17 35 17 28.05 17 25.49"/><polygon class="cls-7" points="19 37 9 37 9 54 26 54 26 47 26 47 26 37 19 37 19 37"/><rect class="cls-6" x="28" y="19" width="7" height="7"/><polygon class="cls-8" points="28 28 28 35 27.56 35 35 35 35 28 28 28"/><rect class="cls-9" x="28" y="37" width="7" height="7"/><rect class="cls-10" x="19" y="28" width="7" height="7"/></g></g></svg>
